<?xml version="1.0" encoding="UTF-8"?>
<svg overflow="hidden" viewBox="0 0 1831 794" xmlns="http://www.w3.org/2000/svg">
<defs>
<clipPath id="a">
<path d="m334 293h1831v794h-1831z" clip-rule="evenodd" fill-rule="evenodd"/>
</clipPath>
</defs>
<g transform="translate(-334 -293)" clip-path="url(#a)" fill-rule="evenodd">
<path d="m335 1086v-520h329v98.358h-218.37v108.65h194.59v98.358h-194.59v214.63" fill="#330C45"/>
<path d="m875.48 683.8c-2.523 7.624-6.126 17.918-10.811 30.498-4.684 13.343-10.09 28.211-16.215 45.367-6.126 17.155-12.973 35.835-20.54 56.041-7.568 20.586-15.135 42.316-22.702 64.809h140.54c-7.567-22.493-14.774-44.223-21.981-64.809-6.846-20.587-13.693-39.267-19.819-56.423-6.486-17.155-11.891-32.023-16.936-44.985-4.685-12.962-8.649-23.255-11.531-30.498m132.97 402.2c-5.41-17.92-11.175-36.6-17.661-55.66-6.126-19.06-12.612-38.123-18.738-56.803h-192.07c-6.125 19.061-12.612 37.743-18.738 57.183-6.125 19.06-12.251 37.36-17.296 55.28h-114.95c18.378-56.04 36.035-107.89 52.611-155.16 16.576-47.654 32.791-92.64 48.647-134.58 15.855-41.936 31.71-81.965 47.205-119.71 15.135-37.742 31.35-74.721 47.926-110.56h104.86c16.216 35.836 32.071 72.815 47.927 110.56 15.495 37.742 31.353 77.771 47.203 119.71 15.86 41.935 32.43 86.921 49.01 134.58 16.58 47.272 34.23 99.121 52.61 155.16" fill="#330C45"/>
<path d="m1756.8 566c8.64 16.393 18.37 36.598 29.53 60.997s22.68 50.704 34.93 78.915c11.88 28.211 24.12 57.185 35.64 86.54 11.89 29.736 23.05 57.566 33.49 83.489 10.44-25.923 21.61-53.753 33.49-83.489 11.88-29.355 23.76-58.329 36.01-86.54 11.88-28.211 23.76-54.516 34.92-78.915 11.17-24.399 20.89-44.604 29.17-60.997h100.82c4.68 34.311 9 73.196 13.32 115.89 3.97 42.698 7.57 87.303 10.45 133.43 3.24 46.51 5.76 93.02 8.64 139.15 2.52 46.895 4.68 90.735 6.84 131.52h-108.02c-1.44-50.7-3.24-105.6-5.76-165.07-2.17-59.472-5.77-119.71-10.45-180.32-8.64 21.349-18 44.604-28.44 70.147-10.45 25.161-20.89 50.704-30.97 76.246-10.44 25.543-20.16 49.941-29.53 73.196-9.36 23.256-17.64 43.077-24.12 59.857h-77.42c-6.48-16.78-14.76-36.601-24.12-59.857-9.37-23.255-19.45-47.653-29.53-73.196-10.08-25.542-20.52-51.085-30.97-76.246-10.44-25.543-19.8-48.798-28.44-70.147-4.68 60.616-8.28 120.85-10.45 180.32-2.52 59.472-4.32 114.37-5.76 165.07h-108.02c2.16-40.79 4.32-84.63 6.84-131.52 2.52-46.129 5.4-92.639 8.64-139.15 2.88-46.129 6.48-90.734 10.45-133.43 3.96-42.698 8.64-81.583 13.32-115.89" fill="#330C45"/>
<path d="m1546.6 1027.6c-10.08-19.47-20.17-38.569-30.97-56.899-10.81-18.33-21.62-35.897-32.42-52.7-10.81-16.803-21.26-31.696-30.98-44.68 29.53-12.984 52.59-30.933 68.44-53.846 15.85-22.531 23.77-52.7 23.77-88.979 0-58.81-19.81-101.96-59.07-129.84-39.27-27.877-95.82-41.625-169.3-41.625h-16.93c12.6 38.57 6.12 77.522-7.21 101.2 2.88 0 5.77-0.382 8.65-0.763 6.48-0.382 13.68-0.382 21.61-0.382 35.66 0 62.32 5.346 80.69 16.039 18.01 10.693 27.37 29.023 27.37 54.609 0 26.35-9 45.063-27.01 56.519-18.01 10.693-47.91 16.421-89.34 16.421h-31.33s-2.89-80.196-23.06-109.6c0 0-35.3 26.35-87.53 24.823v368.14h110.59v-190.18h54.39c9.72 11.838 19.09 25.204 28.82 40.098 9.36 14.893 19.09 30.55 28.81 46.971 9.73 16.803 19.09 33.989 28.46 51.169 9.01 17.57 18.37 35.14 27.38 51.94h123.55c-8.28-19.09-17.65-38.57-27.38-58.43" fill="#330C45"/>
<path d="m1291.3 662c0.34-0.5 0.34-0.75 0.67-1-0.33 0-0.67 0-1 0.25 0.33 0.25 0.33 0.75 0.33 0.75" fill="#14596B"/>
<path d="m1299.2 559.56c-6.14-19.078-17.32-38.156-34.63-54.944-52.66-50.748-126.24-64.102-197.66-99.206-71.413-35.103-82.595-111.42-82.595-111.42-27.412 55.708-22.362 106.46-22.362 106.46 10.099 22.894 56.267 48.458 56.267 48.458-20.559 1.908-56.989-13.355-56.989-13.355-7.213 63.339 19.117 114.85 19.117 114.85 25.612 17.552 73.582-4.197 73.582-4.197-9.74 32.814-59.876 34.34-59.876 34.34 24.526 58.379 65.286 88.903 65.286 88.903 33.54-9.157 56.63-38.156 56.63-38.156-0.72 25.183-36.43 55.327-36.43 55.327 33.54 22.893 65.28 30.906 92.33 32.05 52.3 1.145 87.65-25.182 87.65-25.182 20.2 29.38 23.08 109.51 23.08 109.51 2.89-30.143 3.61-59.905 0-88.14-6.13-50.366-25.24-95.008-68.53-124.77-9.73-6.868-18.75-13.355-26.33-19.841-39.67-31.67-56.62-56.089-56.62-56.089 10.46 11.447 28.13 30.524 70.33 53.8 5.05 2.67 10.46 5.723 16.23 8.775 57.71 29.38 71.42 76.694 73.22 84.325 0.36-0.382 0.72-0.382 1.08-0.382 13.35-23.656 19.84-62.575 7.22-101.11" fill="#3DAF76"/>
</g>
</svg>
